<?xml version="1.0" standalone="no"?>
<!DOCTYPE svg PUBLIC "-//W3C//DTD SVG 20010904//EN"
 "http://www.w3.org/TR/2001/REC-SVG-20010904/DTD/svg10.dtd">
<svg version="1.0" xmlns="http://www.w3.org/2000/svg"
 width="480.000000pt" height="480.000000pt" viewBox="0 0 480.000000 480.000000"
 preserveAspectRatio="xMidYMid meet">
<metadata>
Created by potrace 1.11, written by Peter Selinger 2001-2013
</metadata>
<g transform="translate(0.000000,480.000000) scale(0.100000,-0.100000)"
fill="#000000" stroke="none">
<path d="M2205 4704 c-560 -58 -1029 -275 -1419 -653 -363 -354 -585 -789
-672 -1316 -26 -155 -26 -515 0 -670 73 -446 241 -820 514 -1145 366 -437 868
-717 1443 -807 159 -24 500 -24 659 1 393 61 751 211 1069 449 123 92 346 315
438 438 238 318 388 676 449 1069 25 159 25 500 1 659 -76 490 -286 918 -620
1267 -350 366 -791 599 -1302 685 -116 20 -457 34 -560 23z m420 -340 c404
-40 810 -232 1108 -523 289 -282 473 -626 549 -1029 19 -98 22 -151 22 -327 0
-125 -5 -232 -12 -265 -7 -30 -14 -68 -16 -85 -9 -74 -49 -212 -96 -330 -96
-241 -236 -460 -409 -638 -36 -37 -71 -67 -78 -67 -18 0 -22 23 -27 160 -4 87
-13 155 -31 225 -25 101 -30 136 -39 277 -5 77 -34 197 -83 338 -30 90 -52
134 -109 220 -37 56 -64 90 -144 183 -31 35 -101 107 -105 107 -3 0 -22 16
-42 35 -61 56 -73 65 -79 65 -3 0 -20 10 -37 23 -35 25 -65 43 -87 53 -8 4
-23 14 -33 23 -38 32 -43 17 -11 -30 74 -111 101 -256 70 -379 -9 -36 -38
-109 -63 -164 l-48 -98 29 -23 c16 -13 41 -29 55 -37 30 -15 56 -38 44 -38 -4
-1 6 -7 22 -14 33 -15 85 -62 85 -76 0 -5 10 -12 22 -16 59 -18 215 -222 245
-319 16 -51 16 -55 -2 -55 -8 0 -19 17 -26 42 -17 64 -86 148 -144 175 -16 8
-41 21 -55 29 -20 12 -53 14 -175 9 -82 -3 -162 -6 -177 -8 -24 -2 -28 -9 -47
-81 -12 -43 -33 -92 -46 -110 -14 -17 -29 -35 -33 -41 -5 -5 -19 -17 -32 -26
-36 -24 -9 -31 36 -10 21 10 47 21 57 25 11 3 21 14 24 24 2 10 14 22 26 28
12 5 21 15 20 22 -2 7 4 9 15 5 15 -6 15 -4 4 9 -11 14 -10 16 7 11 12 -3 18
-10 14 -16 -3 -5 17 3 45 18 28 15 65 28 82 29 16 1 30 4 30 9 0 4 7 7 16 7
13 0 14 -3 5 -14 -10 -12 -4 -16 35 -22 33 -5 49 -3 52 5 2 6 13 11 25 11 22
-1 22 -1 2 -12 -11 -6 -22 -13 -25 -15 -8 -7 24 -23 48 -23 13 0 20 -4 17 -10
-3 -5 2 -10 12 -10 24 0 91 -24 104 -37 7 -7 -56 -12 -198 -16 -237 -6 -388
-31 -450 -73 -33 -22 -45 -24 -160 -24 -127 0 -156 7 -181 42 -7 10 -19 18
-27 18 -9 0 -11 8 -8 23 5 20 4 20 -8 5 -13 -16 -19 -16 -84 -2 -48 10 -160
17 -352 21 -156 3 -283 9 -283 14 0 18 33 89 41 89 5 0 6 7 2 16 -3 9 -2 19 3
23 5 3 31 38 57 76 61 90 73 105 82 105 4 0 21 13 36 30 16 16 29 28 29 25 0
-3 28 23 63 58 34 34 68 63 75 65 7 1 24 12 37 25 40 37 55 48 55 40 0 -4 5
-2 10 3 7 7 -2 38 -29 95 -55 119 -71 181 -71 270 0 132 46 242 142 343 33 34
40 46 27 46 -10 0 -21 -4 -24 -10 -3 -5 -15 -10 -27 -10 -11 0 -37 -9 -57 -19
-20 -11 -55 -28 -77 -38 -80 -37 -247 -170 -293 -233 -24 -33 -48 -60 -52 -60
-11 0 -119 -134 -119 -147 0 -6 -7 -16 -16 -23 -8 -8 -22 -27 -30 -44 -7 -17
-22 -45 -32 -61 -18 -28 -65 -179 -92 -290 -6 -27 -11 -96 -11 -153 0 -56 -4
-124 -10 -150 -5 -26 -12 -60 -15 -77 -3 -16 -13 -55 -21 -85 -13 -44 -15 -87
-10 -216 3 -88 2 -166 -2 -173 -6 -10 -14 -10 -28 -3 -30 16 -165 167 -240
267 -74 98 -196 321 -218 395 -4 14 -11 30 -15 35 -21 30 -76 225 -100 350
-28 154 -34 445 -11 595 15 99 59 272 96 380 35 99 123 278 180 364 25 38 45
71 45 74 0 3 34 47 75 98 137 168 270 285 488 430 61 40 203 111 287 144 307
117 588 156 905 124z m105 -2728 c0 -3 -4 -8 -10 -11 -5 -3 -10 -1 -10 4 0 6
5 11 10 11 6 0 10 -2 10 -4z m-646 -110 c131 -29 187 -72 202 -154 7 -36 -38
-228 -61 -259 -12 -16 -19 -15 -115 10 -217 57 -383 151 -545 308 l-99 97 64
10 c92 15 467 7 554 -12z m1204 -7 c23 -6 42 -14 42 -18 0 -10 -120 -124 -179
-170 -120 -93 -285 -171 -444 -211 -49 -12 -90 -20 -91 -18 -19 24 -38 86 -43
141 -3 37 -10 70 -14 73 -5 3 -9 13 -8 22 0 14 2 13 9 -3 7 -15 9 -10 9 23 1
54 31 98 80 120 20 9 90 26 156 39 102 19 143 22 280 18 88 -2 179 -9 203 -16z
m-838 -91 c0 -16 -3 -19 -11 -11 -6 6 -8 16 -5 22 11 17 16 13 16 -11z m114
-7 c-15 -15 -24 -17 -44 -10 -20 8 -22 12 -10 19 9 6 17 5 22 -3 5 -9 12 -7
25 5 9 10 19 15 22 12 3 -2 -4 -13 -15 -23z m-78 -82 c14 -15 134 -356 134
-379 0 -4 -7 -7 -16 -6 -10 1 -22 -16 -34 -46 -10 -27 -16 -48 -13 -48 2 0 -3
-7 -12 -16 -18 -18 -16 -35 5 -42 8 -3 10 0 6 7 -4 6 -4 11 1 10 17 -3 36 1
30 7 -3 3 3 16 14 27 14 16 18 29 13 54 -7 36 -3 39 27 23 26 -14 55 -75 62
-130 6 -45 6 -45 -25 -47 -21 -2 -41 6 -65 26 l-35 29 -35 -24 c-20 -13 -39
-21 -44 -18 -5 3 -9 0 -9 -6 0 -6 -4 -8 -10 -5 -5 3 -10 2 -10 -4 0 -5 -18 -8
-44 -5 l-44 5 -18 -51 c-17 -47 -21 -51 -44 -45 -14 4 -38 8 -55 9 -38 3 -75
15 -75 25 0 12 48 19 104 15 82 -5 82 11 -1 66 -51 35 -59 36 -101 14 -32 -16
-41 -41 -21 -61 7 -7 3 -9 -15 -6 -24 5 -31 14 -27 36 2 11 -17 8 -25 -5 -4
-6 -3 -13 3 -15 6 -2 9 -13 6 -23 -4 -14 0 -20 11 -20 9 0 15 -6 14 -12 -2 -8
7 -13 20 -12 25 1 24 1 16 -20 -8 -20 -44 -20 -138 0 l-75 17 31 59 c17 32 27
62 24 66 -13 12 -41 -16 -40 -40 1 -20 -3 -24 -17 -21 -12 3 -21 -1 -24 -11
-3 -9 -7 -23 -10 -31 -8 -27 -260 72 -437 172 l-98 55 0 41 0 41 30 -32 c54
-59 137 -84 330 -97 52 -4 101 -12 108 -18 9 -7 20 -6 37 3 13 7 31 10 39 7 9
-4 27 -2 40 3 33 12 63 2 69 -22 4 -14 11 -19 21 -15 9 4 16 2 16 -3 0 -6 6
-10 13 -10 8 0 20 19 26 42 8 26 28 56 52 78 34 31 45 54 98 208 59 174 84
218 125 224 37 6 74 -4 92 -23z m934 -424 c0 -20 -13 -32 -72 -65 -63 -34 -75
-38 -84 -25 -17 22 -34 18 -34 -8 0 -19 -11 -29 -52 -49 -71 -34 -259 -98
-289 -98 -14 0 -29 -4 -35 -9 -5 -5 -20 -11 -34 -13 -20 -3 -31 5 -52 36 l-26
39 21 17 c18 15 19 20 8 33 -17 21 -6 37 24 37 18 0 23 -4 19 -15 -4 -10 0
-15 11 -15 9 0 13 5 10 10 -8 13 -10 13 192 14 209 1 236 18 43 27 -71 3 -132
8 -135 11 -3 3 64 8 148 11 169 6 255 24 303 63 36 29 34 29 34 -1z m-595 -55
c8 -13 -5 -13 -25 0 -13 8 -13 10 2 10 9 0 20 -4 23 -10z m79 -8 c3 -5 -1 -9
-9 -9 -8 0 -15 4 -15 9 0 4 4 8 9 8 6 0 12 -4 15 -8z m-344 -170 c0 -16 -25
-40 -50 -47 -25 -7 -25 -7 5 23 30 31 45 39 45 24z"/>
<path d="M2340 3818 c-10 -49 -43 -385 -50 -498 -11 -187 -18 -240 -31 -240
-6 0 -9 -12 -7 -27 2 -22 8 -27 31 -26 46 2 47 2 47 23 0 11 -4 20 -10 20 -11
0 -13 37 -4 104 6 42 9 46 35 46 28 0 28 -1 31 -67 2 -38 -1 -75 -6 -84 -18
-32 0 -50 46 -47 39 3 43 6 46 32 2 16 -1 26 -6 22 -17 -10 -23 43 -23 213 0
91 -4 236 -8 321 -5 85 -10 167 -10 183 -1 25 -4 27 -41 27 -22 0 -40 -1 -40
-2z m32 -350 c4 -159 -3 -197 -32 -164 -10 13 -10 26 -1 60 6 25 11 92 11 150
0 163 18 125 22 -46z"/>
<path d="M1900 3749 c-102 -21 -152 -58 -116 -84 20 -15 51 -160 61 -288 4
-38 11 -81 16 -95 19 -49 59 -287 49 -290 -15 -5 -12 -49 3 -55 8 -3 20 -1 28
4 8 5 23 9 34 9 34 0 105 34 105 50 -1 8 -7 44 -15 80 -8 36 -14 79 -15 96 0
20 -6 34 -17 38 -20 8 -35 -12 -29 -39 16 -71 26 -149 22 -161 -6 -16 -32 -19
-41 -4 -6 10 -55 273 -55 297 0 7 7 13 15 13 11 0 15 -11 15 -37 l1 -38 15 29
c13 23 14 33 4 51 -7 13 -10 28 -6 33 3 6 2 13 -3 16 -5 3 -7 14 -4 24 2 10
-5 29 -16 43 l-21 24 7 -44 c5 -35 3 -43 -8 -39 -16 5 -45 133 -55 246 -7 68
-6 72 14 72 16 0 22 -10 31 -47 6 -27 12 -64 14 -83 1 -19 9 -42 19 -52 15
-15 17 -15 22 8 7 25 -22 214 -33 225 -3 3 -22 2 -41 -2z"/>
<path d="M2800 3742 c0 -10 4 -22 10 -28 10 -10 -54 -279 -71 -300 -5 -6 -14
-44 -19 -85 -9 -68 -26 -147 -51 -241 -5 -21 -15 -37 -22 -35 -6 1 -13 -8 -15
-20 -3 -17 8 -27 58 -52 78 -40 105 -40 129 -1 29 49 76 272 65 311 -8 28 -6
36 16 58 20 20 32 55 54 154 26 112 28 132 17 167 -12 42 -27 52 -112 79 -49
15 -59 14 -59 -7z m117 -92 c1 -19 -12 -91 -30 -160 -28 -108 -35 -125 -52
-125 -13 0 -21 8 -23 22 -3 20 54 276 65 296 3 4 12 7 21 5 12 -2 18 -15 19
-38z m-88 -344 c9 -10 4 -44 -20 -142 -16 -71 -33 -137 -35 -146 -6 -22 -42
-24 -50 -3 -5 13 33 195 57 273 11 34 29 41 48 18z"/>
<path d="M1370 3483 c-13 -9 -31 -24 -40 -32 -9 -9 -25 -21 -35 -27 -14 -8
-17 -16 -11 -39 5 -20 10 -25 15 -16 9 14 99 -191 108 -246 3 -18 10 -36 14
-39 5 -3 9 -13 9 -23 0 -10 6 -24 14 -30 14 -12 116 -250 116 -271 0 -6 -4 -9
-9 -6 -5 4 -7 -3 -4 -14 3 -11 11 -20 17 -20 22 0 126 61 136 80 26 49 1 141
-116 415 -15 33 -44 103 -66 155 -22 52 -47 103 -56 113 -19 22 -60 22 -92 0z
m97 -163 c28 -69 52 -133 52 -142 1 -10 12 -37 25 -60 41 -74 117 -269 114
-291 -2 -14 -10 -22 -23 -22 -16 0 -30 24 -72 125 -29 69 -53 135 -53 148 0
12 -4 22 -10 22 -5 0 -10 8 -10 18 0 10 -4 22 -9 27 -16 16 -111 248 -111 270
0 12 3 25 7 29 21 21 42 -8 90 -124z"/>
<path d="M3303 3478 c-12 -13 -47 -74 -79 -137 -81 -156 -78 -151 -86 -151 -5
0 -8 -10 -8 -22 0 -13 -28 -81 -61 -151 -59 -123 -61 -130 -50 -167 7 -23 19
-41 31 -45 11 -4 25 -15 30 -26 13 -23 38 -24 68 -3 12 8 50 68 83 132 32 64
68 131 78 147 11 17 20 35 20 42 1 7 28 69 61 139 33 69 60 140 60 156 0 21
-11 39 -42 68 -49 45 -76 50 -105 18z m91 -54 c3 -9 -30 -86 -78 -182 -46 -92
-111 -225 -145 -295 -47 -100 -65 -128 -79 -125 -9 2 -18 13 -20 25 -3 21 109
256 128 268 5 3 10 15 10 26 0 10 5 19 10 19 6 0 10 8 10 18 0 9 27 72 60 140
45 94 63 122 78 122 11 0 23 -7 26 -16z"/>
<path d="M3726 3131 c-4 -5 -4 -15 -1 -23 6 -14 -107 -154 -181 -225 -24 -23
-44 -46 -44 -52 0 -17 -164 -205 -168 -192 -3 9 -7 9 -18 0 -15 -13 -19 -55
-5 -61 5 -1 20 -23 34 -48 31 -56 64 -82 95 -74 28 8 181 190 184 219 0 11 2
26 2 34 1 8 13 15 29 15 15 1 33 8 40 16 178 199 191 241 101 343 -19 20 -34
42 -34 47 0 13 -27 13 -34 1z m74 -121 c8 -16 2 -29 -37 -77 -103 -128 -127
-153 -143 -153 -29 0 -33 31 -9 64 51 70 155 186 166 186 7 0 17 -9 23 -20z
m-222 -270 c2 -19 -17 -49 -78 -122 -80 -96 -111 -116 -124 -82 -8 20 -7 21
88 137 82 98 108 114 114 67z"/>
<path d="M947 3065 c-30 -38 -32 -70 -5 -70 16 0 147 -170 170 -221 6 -13 15
-24 20 -24 4 0 8 -7 8 -15 0 -8 4 -15 9 -15 5 0 46 -50 90 -112 57 -77 80
-117 75 -130 -10 -34 24 -32 56 3 33 34 37 74 8 74 -16 0 -139 160 -173 225
-9 18 -27 42 -39 54 -29 27 -166 216 -166 228 0 5 5 6 11 2 8 -4 8 0 0 15 -16
30 -32 26 -64 -14z"/>
<path d="M1704 1854 c-80 -54 -189 -203 -165 -227 4 -4 25 -5 45 -1 28 5 44
16 62 44 22 33 28 37 61 33 34 -4 35 -3 29 22 -6 24 -4 26 14 20 12 -4 27 -1
35 5 17 14 80 9 113 -9 12 -7 43 -13 67 -14 25 -1 45 -5 45 -9 0 -5 6 -8 14
-8 8 0 17 -6 19 -12 3 -8 6 -5 6 5 1 17 3 17 16 3 9 -9 26 -23 38 -31 17 -12
19 -17 8 -24 -18 -11 -5 -51 17 -51 9 0 28 -3 42 -5 18 -4 20 -3 7 3 -10 4
-17 12 -15 16 2 5 -5 10 -15 12 -27 4 -32 11 -17 29 10 12 10 15 0 15 -7 0
-10 7 -6 17 8 20 -12 109 -32 141 -15 24 -57 30 -65 10 -3 -10 -9 -8 -24 5
-17 15 -35 17 -126 13 -89 -4 -107 -2 -107 10 0 21 -23 17 -66 -12z m261 -74
c3 -5 1 -10 -4 -10 -6 0 -11 5 -11 10 0 6 2 10 4 10 3 0 8 -4 11 -10z m-345
-110 c0 -5 -5 -10 -11 -10 -5 0 -7 5 -4 10 3 6 8 10 11 10 2 0 4 -4 4 -10z"/>
<path d="M2040 1670 c0 -5 5 -10 11 -10 5 0 7 5 4 10 -3 6 -8 10 -11 10 -2 0
-4 -4 -4 -10z"/>
</g>
</svg>
